<?xml version="1.0" standalone="no"?>
<!DOCTYPE svg PUBLIC "-//W3C//DTD SVG 20010904//EN"
 "http://www.w3.org/TR/2001/REC-SVG-20010904/DTD/svg10.dtd">
<svg version="1.0" xmlns="http://www.w3.org/2000/svg"
 width="2133.000000pt" height="2133.000000pt" viewBox="0 0 2133.000000 2133.000000"
 preserveAspectRatio="xMidYMid meet">
<metadata>
Created by potrace 1.11, written by Peter Selinger 2001-2013
</metadata>
<g transform="translate(0.000000,2133.000000) scale(0.100000,-0.100000)"
fill="#000000" stroke="none">
<path d="M10708 21303 c-7 -15 -18 -34 -25 -41 -7 -7 -13 -18 -13 -23 0 -5 -8
-22 -19 -37 -10 -15 -39 -63 -64 -107 -26 -44 -51 -85 -57 -92 -5 -7 -10 -15
-10 -18 0 -7 -167 -295 -205 -355 -27 -41 -231 -393 -252 -432 -8 -15 -19 -30
-24 -33 -5 -4 -7 -11 -4 -16 4 -5 2 -9 -3 -9 -5 0 -17 -18 -27 -40 -10 -22
-22 -40 -27 -40 -4 0 -8 -4 -8 -9 0 -5 -16 -38 -36 -73 -20 -34 -45 -79 -56
-98 -11 -19 -23 -37 -27 -40 -3 -3 -21 -34 -40 -70 -19 -36 -37 -67 -40 -70
-7 -6 -23 -34 -54 -93 -12 -23 -25 -46 -29 -52 -5 -5 -21 -28 -36 -50 -23 -32
-34 -40 -63 -41 -18 0 -54 -4 -79 -7 -25 -4 -67 -9 -95 -12 -27 -3 -63 -8 -80
-12 -16 -3 -41 -7 -55 -8 -14 -2 -86 -13 -160 -25 -74 -13 -144 -24 -155 -25
-11 -1 -20 -3 -20 -4 0 -2 -11 -4 -25 -7 -28 -4 -88 -16 -110 -21 -8 -1 -26
-5 -40 -7 -14 -2 -68 -14 -120 -26 -52 -12 -106 -24 -119 -26 -13 -3 -51 -12
-85 -20 -34 -8 -68 -16 -76 -18 -78 -19 -201 -52 -271 -72 -47 -14 -96 -26
-108 -29 -11 -2 -26 -7 -31 -10 -5 -3 -18 -8 -27 -10 -26 -5 -171 -51 -221
-69 -23 -8 -43 -15 -45 -15 -13 1 -467 -161 -532 -190 -11 -5 -72 -30 -135
-56 -63 -26 -126 -52 -140 -58 -14 -6 -28 -10 -32 -9 -5 1 -8 -3 -8 -8 0 -6
-7 -10 -15 -10 -9 0 -47 -16 -85 -35 -39 -19 -72 -35 -75 -34 -8 1 -437 -213
-540 -269 -49 -27 -117 -64 -150 -82 -33 -18 -100 -57 -149 -87 -49 -29 -91
-53 -93 -53 -3 0 -122 -74 -189 -118 -10 -6 -26 -15 -34 -19 -8 -4 -17 -9 -20
-12 -3 -4 -43 -31 -90 -61 -47 -30 -87 -58 -90 -61 -3 -3 -18 -14 -35 -23 -16
-9 -44 -27 -60 -39 -17 -12 -68 -49 -115 -82 -95 -66 -349 -255 -371 -276 -8
-8 -43 -36 -79 -64 -67 -52 -75 -57 -151 -121 -110 -92 -146 -124 -181 -155
-20 -19 -59 -53 -86 -76 -204 -175 -635 -612 -842 -853 -40 -47 -76 -87 -79
-90 -4 -3 -45 -52 -92 -110 -46 -58 -86 -107 -89 -110 -8 -8 -52 -63 -80 -100
-14 -18 -52 -68 -85 -111 -33 -43 -76 -100 -95 -128 -19 -27 -38 -50 -42 -51
-5 0 -8 -6 -8 -14 0 -7 -7 -19 -15 -26 -19 -16 -247 -355 -362 -540 -134 -214
-263 -441 -354 -620 -24 -47 -52 -98 -63 -115 -12 -16 -20 -32 -20 -35 1 -3
-24 -57 -55 -120 -30 -63 -54 -118 -53 -122 1 -5 -2 -8 -8 -8 -5 0 -10 -6 -10
-13 0 -8 -18 -51 -40 -96 -22 -45 -40 -88 -40 -96 0 -8 -5 -15 -10 -15 -6 0
-9 -3 -8 -7 1 -9 -1 -15 -61 -155 -124 -292 -307 -823 -386 -1118 -2 -8 -22
-85 -44 -170 -22 -85 -41 -155 -41 -155 -1 0 -4 -11 -6 -25 -2 -14 -11 -52
-19 -85 -17 -73 -34 -152 -40 -183 -2 -13 -6 -31 -9 -40 -3 -9 -8 -37 -11 -62
-4 -24 -8 -47 -11 -51 -2 -3 -6 -26 -9 -50 -3 -24 -7 -51 -10 -59 -2 -8 -7
-28 -9 -45 -10 -60 -38 -231 -41 -255 -2 -14 -6 -42 -9 -62 -10 -64 -15 -101
-21 -161 -4 -32 -8 -66 -10 -75 -1 -9 -6 -51 -10 -92 -4 -41 -9 -88 -11 -105
-2 -16 -6 -66 -9 -110 -4 -44 -8 -100 -10 -125 -28 -330 -27 -1171 0 -1435 2
-22 7 -74 10 -115 9 -122 15 -193 21 -230 3 -19 8 -59 10 -88 2 -29 6 -65 9
-80 3 -15 7 -47 10 -72 11 -89 17 -128 30 -205 3 -16 10 -61 15 -99 6 -37 12
-71 14 -75 2 -3 7 -30 10 -59 3 -29 8 -56 10 -61 3 -4 8 -30 12 -57 3 -27 8
-52 10 -55 2 -3 5 -19 8 -35 3 -16 17 -81 32 -144 14 -63 27 -122 28 -130 6
-38 19 -96 24 -105 3 -5 7 -16 8 -25 0 -8 7 -35 14 -60 6 -25 14 -53 16 -62 7
-33 13 -53 34 -123 11 -38 22 -79 24 -90 5 -28 70 -237 117 -380 70 -208 191
-536 229 -620 5 -11 21 -49 36 -85 15 -36 34 -81 42 -100 9 -19 16 -37 17 -40
13 -44 286 -610 308 -639 6 -7 12 -20 13 -28 2 -8 9 -22 17 -31 7 -10 28 -46
47 -82 18 -36 39 -73 48 -82 8 -10 11 -18 7 -18 -4 0 -1 -8 7 -17 8 -10 27
-40 43 -68 15 -27 54 -95 87 -150 80 -135 82 -137 90 -149 4 -6 75 -112 157
-236 82 -124 156 -234 165 -245 8 -11 63 -85 123 -165 140 -189 403 -518 473
-590 8 -9 34 -38 58 -65 224 -257 595 -625 887 -880 100 -88 347 -292 399
-330 15 -11 41 -31 58 -45 30 -25 366 -272 408 -300 12 -8 40 -27 61 -42 21
-16 41 -28 44 -28 6 0 67 -41 75 -51 3 -3 16 -12 29 -19 14 -7 30 -17 35 -22
25 -21 167 -108 176 -108 5 0 10 -4 10 -10 0 -5 5 -10 11 -10 6 0 30 -13 54
-30 24 -16 47 -30 51 -30 4 0 15 -6 23 -14 9 -7 39 -26 66 -41 28 -16 68 -39
90 -52 22 -12 46 -26 54 -29 7 -4 63 -35 125 -68 61 -34 147 -79 191 -101 44
-22 82 -43 83 -47 2 -5 8 -8 13 -8 6 0 47 -18 92 -40 45 -21 86 -39 91 -39 5
0 12 -3 15 -8 10 -15 429 -198 601 -263 41 -15 84 -31 95 -36 11 -4 22 -8 25
-8 3 -1 10 -5 17 -9 6 -4 45 -18 85 -32 40 -13 110 -38 156 -54 45 -17 82 -28
82 -25 0 2 10 -1 22 -8 13 -6 28 -13 34 -14 7 -1 38 -11 70 -22 33 -11 93 -30
134 -42 41 -12 86 -26 100 -31 36 -12 391 -107 423 -113 23 -4 73 -16 227 -53
14 -3 32 -7 40 -8 8 -2 40 -8 70 -14 30 -7 71 -14 90 -17 19 -3 38 -8 41 -10
4 -2 24 -6 45 -9 22 -3 50 -7 64 -10 14 -3 40 -8 59 -11 18 -3 43 -8 55 -10
11 -2 41 -7 66 -10 25 -3 47 -7 50 -9 3 -2 34 -6 70 -10 36 -4 67 -8 70 -10 3
-2 34 -6 70 -10 36 -4 73 -9 83 -11 10 -2 48 -6 85 -10 37 -3 81 -8 97 -10 39
-5 101 -11 195 -19 41 -3 98 -8 125 -10 245 -21 1027 -28 1275 -11 244 16 397
29 500 41 14 1 52 6 85 9 103 11 149 17 165 21 8 2 40 7 70 10 30 3 78 10 105
15 28 5 68 12 89 15 21 3 48 7 60 10 12 2 38 7 59 10 85 12 114 17 147 25 19
5 51 12 70 15 30 5 321 68 373 81 9 2 27 6 40 10 12 3 31 7 42 9 11 3 54 14
95 25 41 11 84 22 95 25 11 3 50 13 88 24 37 11 71 21 75 22 4 1 12 3 17 4 6
2 70 22 143 45 73 22 142 43 153 45 12 2 27 9 34 15 7 6 17 10 21 9 5 -1 16 1
24 4 8 3 56 20 105 36 217 73 578 217 845 339 157 71 552 270 638 321 30 17
68 38 85 46 18 8 57 31 87 50 30 19 61 34 68 35 6 0 12 5 12 10 0 6 4 10 9 10
5 0 45 23 88 50 43 28 85 53 93 57 8 4 47 27 85 52 39 25 75 48 80 51 21 10
101 66 119 83 11 9 23 17 28 17 4 0 55 34 113 75 58 41 110 75 115 75 4 0 10
3 12 8 2 4 82 67 179 140 155 116 411 320 502 401 268 237 327 292 537 501
148 149 334 344 390 410 11 14 31 36 43 50 62 68 273 321 297 354 8 12 21 27
28 35 22 22 291 385 357 481 32 47 66 96 76 110 66 96 159 242 159 250 0 6 3
10 8 10 4 0 12 9 17 20 6 11 42 73 81 137 40 65 84 141 100 168 16 28 32 52
36 53 4 2 8 8 8 13 0 5 35 73 78 152 42 78 91 169 107 202 17 33 33 62 38 63
4 2 7 8 7 13 0 5 30 70 66 145 128 265 289 648 375 889 17 50 35 99 40 110 13
28 127 382 140 430 5 22 13 47 16 55 4 8 8 22 9 30 2 8 17 62 34 120 16 58 32
114 35 125 2 11 8 36 13 55 14 52 109 470 115 505 3 17 8 39 10 50 3 11 8 40
12 65 4 25 9 54 11 65 14 68 19 101 29 170 3 22 10 63 16 91 5 29 12 74 14
100 2 27 6 60 9 74 2 14 7 48 11 75 4 28 8 66 11 85 3 19 7 62 9 95 3 33 7 74
9 90 2 17 7 71 11 120 4 50 8 106 10 125 27 276 27 1171 0 1445 -4 36 -11 123
-20 225 -3 36 -13 126 -21 195 -4 43 -10 85 -19 151 -3 23 -8 59 -10 79 -3 21
-7 50 -10 64 -2 14 -13 82 -24 151 -11 69 -23 136 -26 150 -3 14 -7 39 -10 55
-20 136 -138 652 -171 752 -7 24 -16 57 -19 75 -3 17 -8 35 -11 40 -3 5 -8 20
-10 35 -3 15 -10 33 -16 40 -6 7 -8 13 -5 13 5 0 -26 104 -68 235 -9 28 -18
55 -19 60 -2 6 -6 17 -9 25 -5 14 -30 89 -32 100 -1 3 -5 12 -8 20 -4 8 -21
55 -37 104 -32 92 -141 377 -165 432 -8 16 -36 82 -63 145 -58 132 -92 207
-154 339 -25 52 -48 102 -52 110 -12 30 -164 314 -223 420 -28 50 -95 166
-118 206 -11 19 -45 75 -75 126 -52 89 -378 582 -412 623 -9 11 -77 101 -152
200 -74 99 -150 198 -168 219 -18 22 -80 96 -138 165 -57 70 -107 128 -110
131 -3 3 -25 28 -49 55 -221 251 -615 646 -811 815 -14 12 -41 36 -60 53 -19
18 -62 55 -95 82 -67 57 -113 95 -129 110 -6 6 -58 48 -116 93 -58 46 -112 89
-120 95 -38 31 -188 144 -218 164 -18 13 -38 27 -45 33 -43 36 -552 380 -563
380 -2 0 -29 16 -59 36 -80 50 -267 160 -355 207 -41 22 -80 43 -86 48 -15 12
-510 261 -574 288 -30 14 -82 37 -115 52 -71 33 -276 120 -290 123 -9 3 -26 9
-92 38 -16 6 -30 12 -33 12 -8 2 -153 57 -175 66 -35 15 -248 90 -264 94 -9 2
-23 6 -31 9 -35 14 -268 88 -290 91 -3 1 -11 5 -18 10 -7 4 -16 5 -19 2 -3 -3
-11 -2 -17 4 -7 5 -27 12 -46 15 -18 3 -36 8 -40 10 -6 4 -141 41 -200 55 -19
5 -53 14 -75 20 -53 14 -74 19 -110 26 -16 3 -64 13 -105 24 -78 19 -267 59
-310 65 -14 2 -25 5 -25 6 0 1 -11 2 -25 4 -14 1 -41 5 -60 10 -19 5 -42 9
-50 10 -95 13 -117 17 -130 20 -8 3 -33 7 -55 10 -22 4 -67 10 -100 15 -90 14
-146 21 -190 25 -22 2 -42 5 -45 6 -12 4 -27 6 -56 7 -26 2 -34 10 -65 67 -18
36 -37 65 -41 65 -5 0 -8 5 -8 11 0 6 -16 38 -36 70 -19 32 -34 60 -32 63 2 2
-4 12 -13 22 -9 11 -29 42 -45 69 -16 28 -34 59 -41 70 -7 11 -18 31 -25 45
-7 14 -16 27 -20 30 -4 3 -14 22 -22 42 -9 20 -19 38 -23 40 -5 1 -21 28 -37
58 -16 30 -35 62 -42 71 -8 8 -14 23 -14 32 0 9 -4 17 -8 17 -5 0 -16 15 -25
33 -9 17 -28 50 -42 72 -14 22 -31 52 -37 68 -7 15 -15 27 -19 27 -3 0 -14 18
-24 40 -10 22 -23 40 -28 40 -6 0 -8 3 -5 6 6 5 -49 105 -72 131 -5 7 -10 19
-10 27 0 8 -4 16 -8 18 -11 4 -67 101 -64 111 1 4 -5 10 -13 13 -8 3 -12 10
-9 15 3 5 0 9 -6 9 -6 0 -8 5 -5 10 3 6 1 10 -4 10 -6 0 -11 6 -11 14 0 8 -3
16 -7 18 -5 2 -17 19 -28 39 -54 99 -100 174 -107 177 -4 2 -6 7 -3 12 3 5 -1
15 -8 22 -8 8 -33 48 -56 91 -24 42 -47 79 -52 83 -5 3 -15 -8 -21 -23z"/>
</g>
</svg>
